Coordinates
version=1
nRows=10
nColumns=40
inDegrees=yes

Units are S.I. units (second, meters, Newtons, ...)
Angles are in degrees.

endheader
time	pelvis_tilt	pelvis_list	pelvis_rotation	pelvis_tx	pelvis_ty	pelvis_tz	hip_flexion_r	hip_adduction_r	hip_rotation_r	knee_angle_r	knee_angle_r_beta	ankle_angle_r	subtalar_angle_r	mtp_angle_r	hip_flexion_l	hip_adduction_l	hip_rotation_l	knee_angle_l	knee_angle_l_beta	ankle_angle_l	subtalar_angle_l	mtp_angle_l	lumbar_extension	lumbar_bending	lumbar_rotation	arm_flex_r	arm_add_r	arm_rot_r	elbow_flex_r	pro_sup_r	wrist_flex_r	wrist_dev_r	arm_flex_l	arm_add_l	arm_rot_l	elbow_flex_l	pro_sup_l	wrist_flex_l	wrist_dev_l
     56.22342857	     -4.24808290	     -5.63348519	     -2.03978073	      1.09127480	      0.93600076	      0.39619268	     28.19256094	     -4.61659990	     -7.84751899	     32.92938958	     32.92938958	      3.31054249	     -8.06339566	      1.25259855	     12.90961717	     -6.20352043	    -11.10804550	     20.08412018	     20.08412018	     14.84438381	     -2.89040054	     -2.98447425	    -12.43254910	      2.38090648	     -0.77935439	      0.42909078	    -17.28530383	     -9.66332558	     27.39271913	     47.13175909	      0.00000000	      0.00000000	     11.91514060	    -17.37818543	     -5.36854135	     43.79350539	     46.48684312	      0.00000000	      0.00000000
     56.23685714	     -4.38346766	     -5.60190697	     -2.31025988	      1.09026519	      0.93582324	      0.39663748	     27.77361674	     -4.40250988	     -8.33594711	     28.71016713	     28.71016713	      2.87670444	     -5.70336634	      1.30880830	     12.51931101	     -6.16300620	    -11.28170239	     19.74001996	     19.74001996	     14.93655950	     -2.96765378	     -3.19262604	    -12.51832072	      2.29750160	     -0.76142130	     -0.16980476	    -17.47973937	     -9.98085284	     27.50854771	     47.13339919	      0.00000000	      0.00000000	     12.25394653	    -17.38505046	     -5.33490478	     43.88556074	     46.49327743	      0.00000000	      0.00000000
     56.25028571	     -4.63902066	     -5.46032694	     -2.58585779	      1.08933804	      0.93539113	      0.39717200	     27.43670292	     -4.28574709	     -9.08802257	     24.46032707	     24.46032707	      2.13894582	     -2.79375268	      0.77762769	     12.19341853	     -5.98241096	    -11.42427301	     19.25433078	     19.25433078	     14.87765558	     -3.17013069	     -3.65350613	    -12.42375689	      2.09431193	     -0.62296509	     -1.02225286	    -17.54428148	    -10.69574019	     28.03659755	     47.12862462	      0.00000000	      0.00000000	     12.68560242	    -17.28327895	     -5.24386001	     43.82311068	     46.49916419	      0.00000000	      0.00000000
     56.26371429	     -4.93699318	     -5.48407511	     -2.83206102	      1.08841259	      0.93489913	      0.39796270	     27.04328468	     -3.78420303	     -9.59759516	     20.15468523	     20.15468523	      1.38780435	     -0.54326929	      1.48168037	     12.02203503	     -6.02505652	    -11.51663486	     18.99547476	     18.99547476	     14.97316705	     -3.35146478	     -3.84171093	    -12.27981217	      2.12627608	     -0.67792207	     -1.46815534	    -17.58296431	    -10.92760063	     28.13807261	     47.12844674	      0.00000000	      0.00000000	     12.81079228	    -17.24148604	     -5.20695910	     43.87370092	     46.50077164	      0.00000000	      0.00000000
     56.27714286	     -5.09344882	     -5.38498062	     -3.08352213	      1.08771731	      0.93446070	      0.39882418	     26.52075574	     -3.43427373	    -10.41569107	     16.14362258	     16.14362258	      0.77135867	      2.48922560	      2.20683483	     11.63036186	     -5.92069504	    -11.64979219	     18.63000492	     18.63000492	     15.03023934	     -3.51729444	     -4.12032587	    -12.29285339	      2.00186707	     -0.62139183	     -1.93204504	    -17.58461919	    -11.24510638	     28.35341066	     47.12663758	      0.00000000	      0.00000000	     13.00992994	    -17.16064020	     -5.18789168	     43.95513001	     46.50607770	      0.00000000	      0.00000000
     56.29057143	     -5.26943471	     -5.17491676	     -3.31670591	      1.08720645	      0.93382911	      0.39965214	     26.23741524	     -3.28303558	    -11.73328300	     12.89488970	     12.89488970	      0.62850717	      6.30255095	      3.90819182	     11.15945564	     -5.62519257	    -11.59463438	     18.03389189	     18.03389189	     14.66580164	     -4.13498457	     -5.18152116	    -12.25478342	      1.79345538	     -0.34923085	     -2.78789385	    -17.42205295	    -12.50906624	     29.33958900	     47.11680346	      0.00000000	      0.00000000	     13.39610215	    -16.91988420	     -5.11461753	     43.84653331	     46.51853029	      0.00000000	      0.00000000
     56.30400000	     -5.43978855	     -5.08098102	     -3.55024376	      1.08686343	      0.93319685	      0.40084599	     25.90511246	     -2.80077881	    -12.26214224	      9.90290940	      9.90290940	      0.11967064	      8.44551631	      5.07651590	     10.77570729	     -5.54509189	    -11.71430065	     17.70384388	     17.70384388	     14.80269750	     -4.26569159	     -5.39958348	    -12.16907784	      1.70407404	     -0.32032889	     -3.06695753	    -17.28881851	    -12.70837755	     29.40445128	     47.11450372	      0.00000000	      0.00000000	     13.44841191	    -16.79501478	     -5.07853744	     43.92677291	     46.51943156	      0.00000000	      0.00000000
     56.31742857	     -5.57783233	     -4.91016198	     -3.76488858	      1.08666463	      0.93262067	      0.40191545	     25.86649187	     -2.58858352	    -13.40807216	      8.11969234	      8.11969234	      1.05449894	     11.30838350	      9.38056123	     10.21364586	     -5.28948466	    -11.58653390	     17.03476447	     17.03476447	     14.34378326	     -4.96892375	     -6.59958091	    -12.13677443	      1.59004905	     -0.08582728	     -3.56709540	    -17.05301945	    -14.06304034	     30.07639130	     47.09543978	      0.00000000	      0.00000000	     13.59611681	    -16.50470085	     -5.00785925	     43.93046718	     46.53548271	      0.00000000	      0.00000000
     56.33085714	     -5.72821996	     -4.75917759	     -3.97387745	      1.08668019	      0.93187125	      0.40336187	     25.77917977	     -2.23510252	    -13.72395145	      6.64331644	      6.64331644	      0.84107690	     12.46449996	      9.87538180	      9.81408854	     -5.17520484	    -11.70574354	     16.75750200	     16.75750200	     14.55257271	     -4.98790647	     -6.69661204	    -12.00560136	      1.42409991	     -0.04769899	     -3.65956376	    -16.80908915	    -14.11397785	     30.08995747	     47.08789632	      0.00000000	      0.00000000	     13.58542156	    -16.40130147	     -4.99367057	     43.99510760	     46.53563671	      0.00000000	      0.00000000
     56.34428571	     -5.83639622	     -4.63252517	     -4.13899644	      1.08678171	      0.93099600	      0.40481667	     26.00515767	     -1.99442802	    -13.83799795	      6.43324244	      6.43324244	      0.94472980	     12.57947367	      9.89881518	      9.47765827	     -5.10542550	    -11.82146246	     16.70456279	     16.70456279	     14.91402340	     -5.12065251	     -6.81212431	    -11.93406514	      1.35834344	     -0.08317501	     -3.65375936	    -16.66928067	    -14.10520392	     30.10606132	     47.08532372	      0.00000000	      0.00000000	     13.56615242	    -16.28565510	     -4.96862782	     44.00412807	     46.53307181	      0.00000000	      0.00000000
